PathFileType	4	(X/Y/Z)	C:/Users/beibeiliu/ov580/test_trc/User3\sequence.43_training_dense_left.trc
DataRate	CameraRate	NumFrames	NumMarkers	Units	OrigDataRate	OrigDataStartFrame	OrigNumFrames
120	120	15	19	mm	120	49	121
Frame#	Time	ThumbCMC			ThumbMCP			ThumbIP			ThumbTip			IndexMCP			IndexPIP			IndexTip			MiddleMCP			MiddlePIP			MiddleTip			RingMCP			RingPIP			RingTip			PinkyMCP			PinkyPIP			PinkyTip			BackHand1			BackHand2			BackHand3	
		X0	Y0	Z0	X1	Y1	Z1	X2	Y2	Z2	X3	Y3	Z3	X4	Y4	Z4	X5	Y5	Z5	X6	Y6	Z6	X7	Y7	Z7	X8	Y8	Z8	X9	Y9	Z9	X10	Y10	Z10	X11	Y11	Z11	X12	Y12	Z12	X13	Y13	Z13	X14	Y14	Z14	X15	Y15	Z15	X16	Y16	Z16	X17	Y17	Z17	X18	Y18	Z18	
48	0.4	-74.634	1.64915	51.8544	-65.1375	-13.049	25.7857	-51.1611	-24.7192	-1.49416	-54.7237	-32.7879	-23.535	-84.5773	37.317	-18.2982	-80.2524	37.5071	-46.2165	-79.2584	29.7182	-72.521	-113.885	35.535	-23.8692	-113.471	18.2244	-54.9475	-118.754	-17.6586	-64.6392	-132.579	30.307	-15.359	-143.085	12.2623	-41.0689	-138.524	-21.396	-42.1067	-156.463	29.7489	-1.77908	-161.45	18.1843	-25.8357	-160.801	-3.46619	-35.9389	-130.22	40.2326	41.5892	-127.887	36.1016	66.0586	-98.2621	35.1131	51.5587	
49	0.408333	-70.224	3.08863	47.663	-62.0652	-9.2212	25.8457	-50.8676	-19.9864	-0.436521	-48.1211	-29.2836	-23.2861	-82.837	34.9246	-24.0735	-78.0725	27.2359	-52.0534	-79.336	12.978	-73.2122	-109.483	38.1055	-27.2006	-113.422	21.783	-55.1628	-123.071	-14.3576	-66.0595	-131.91	38.7741	-17.7326	-137.285	25.0405	-45.6953	-143.127	-3.67161	-55.5882	-148.354	33.7762	3.10893	-157.183	32.6017	-23.4882	-166.617	15.8368	-45.68	-126.169	44.4688	37.0304	-123.258	37.4623	65.7293	-93.9981	36.5253	48.4011	
50	0.416667	-73.3094	1.19594	53.3361	-59.3461	-9.66995	26.8235	-49.0242	-19.8028	2.7456	-41.0137	-29.4994	-18.2646	-82.2953	27.7709	-20.488	-82.3638	20.4175	-52.6463	-80.9403	3.35702	-71.4475	-110.107	38.7254	-25.8815	-112.799	28.8425	-57.1992	-120.56	1.68797	-76.0999	-130.276	39.4363	-15.1805	-139.206	33.4181	-46.5194	-143.702	10.247	-67.4688	-152.113	33.7249	-2.01196	-162.163	34.17	-21.9685	-166.287	27.6342	-44.9587	-126.903	41.586	38.36	-127.635	38.8577	64.7674	-95.6282	35.2608	47.7402	
51	0.425	-74.1753	2.7041	52.9266	-56.1872	-8.34678	30.075	-46.7957	-16.753	4.40613	-36.4866	-25.5566	-18.7893	-87.0359	28.537	-24.4904	-83.1458	20.1218	-52.4348	-84.664	4.58363	-76.3488	-112.726	39.9244	-25.5869	-111.528	37.4138	-54.6881	-121.123	17.4048	-88.2825	-132.495	37.0707	-17.8041	-139.347	34.8277	-46.5504	-149.23	22.067	-68.7662	-157.797	28.9067	-0.580225	-165.047	27.0378	-26.471	-169.014	19.333	-47.0575	-128.891	39.5809	34.7405	-132.333	36.4212	64.2057	-96.1907	35.6384	45.382	
52	0.433333	-81.298	6.64487	48.0568	-63.24	-3.91598	29.2977	-44.2599	-11.7892	-0.897468	-37.5633	-21.3832	-18.3217	-98.4691	31.5914	-23.5119	-92.7782	28.963	-51.6267	-91.3168	18.6426	-78.2927	-126.056	41.7992	-27.3036	-123.889	43.4156	-52.491	-126.215	36.1798	-86.9842	-148.209	29.7825	-14.9154	-151.945	28.5205	-43.9	-161.207	16.6313	-69.3157	-166.767	17.1105	-1.99539	-174.262	9.27266	-26.0588	-181.838	-4.41961	-46.9746	-137.711	33.8898	33.1677	-139.69	33.0357	66.7565	-104.459	34.9879	42.0584	
53	0.441667	-84.4378	11.753	47.0574	-66.5715	3.42859	20.1299	-50.0472	-4.4728	-4.24087	-45.0221	-14.0977	-21.4224	-111.787	34.5134	-23.192	-106.001	36.4658	-52.4914	-102.206	33.4334	-75.7343	-138.289	40.059	-25.2403	-144.719	44.9536	-53.0868	-150.2	41.4978	-84.1795	-156.259	21.936	-17.6159	-166.55	14.9779	-41.6872	-168.872	-0.650706	-64.956	-171.433	3.00394	-2.10551	-175.409	-12.358	-23.928	-173.877	-33.195	-38.1631	-151.571	29.1296	37.908	-147.135	27.9506	64.4199	-114.867	36.146	39.8527	
54	0.45	-94.6226	23.6751	38.519	-77.6693	16.1756	17.3949	-60.8542	11.115	-9.22677	-56.2739	-0.401346	-28.0359	-132.273	35.9018	-24.6192	-130.18	41.9312	-56.0216	-127.448	40.3675	-77.4657	-162.095	28.6075	-20.9635	-167.708	32.3267	-53.1331	-170.44	23.5621	-85.2685	-169.631	2.86817	-14.9316	-172.931	-12.0761	-43.1705	-159.565	-32.2012	-58.0141	-171.925	-20.2054	-3.80584	-164.581	-38.2005	-20.1536	-144.428	-55.5076	-24.27	-163.824	16.7555	35.5053	-157.633	15.0303	65.7335	-130.933	34.3937	39.4612	
55	0.458333	-110.123	29.4581	37.5028	-88.8561	30.1385	10.9613	-76.2562	24.1235	-13.1645	-65.8326	12.8988	-35.153	-151.809	25.734	-22.7331	-154.165	32.1906	-53.907	-150.959	31.8802	-79.897	-171.355	7.97218	-22.8059	-177.048	5.16323	-56.1924	-167.561	-11.8303	-82.0224	-163.694	-17.458	-16.4018	-151.694	-37.8558	-44.3721	-125.149	-48.6296	-45.8995	-156.358	-41.9471	-3.9856	-136.935	-51.0359	-17.9257	-105.456	-56.8268	-9.55347	-165.727	-2.88574	34.2795	-161.228	0.446335	61.718	-149.358	26.5658	41.3234	
56	0.466667	-121.9	32.8455	34.3957	-100.181	37.7441	9.76997	-84.4052	35.6231	-16.037	-72.8041	23.1338	-33.6662	-161.261	18.3717	-25.3159	-164.631	24.3095	-54.0018	-159.796	25.33	-79.0731	-169.309	-9.66769	-29.4718	-162.194	-17.8175	-61.6715	-130.848	-28.5031	-77.1617	-148.32	-30.7193	-19.8123	-121.245	-41.5146	-39.871	-92.0361	-35.4495	-29.6263	-137.747	-45.7656	-4.01948	-113.027	-48.145	-15.9092	-85.0518	-40.9551	-2.03809	-165.557	-22.1897	28.6606	-161.882	-16.1106	63.1261	-156.805	16.0334	35.4981	
57	0.475	-130.04	29.2827	37.871	-110.105	35.6211	12.0079	-93.3652	34.7059	-16.0595	-79.9601	28.6895	-32.7039	-163.535	8.69135	-29.7952	-167.538	9.71657	-57.586	-160.378	13.6819	-83.9694	-154.351	-19.9323	-36.0484	-137.171	-20.9144	-61.9102	-95.2619	-15.8816	-58.2917	-130.079	-32.8119	-26.1989	-101.218	-30.4639	-36.9348	-79.2744	-19.7705	-20.1274	-121.721	-47.7266	-7.40789	-93.6113	-41.7165	-16.2922	-73.7758	-27.672	-3.63833	-155.637	-31.527	28.1567	-157.631	-22.8304	57.4722	-161.425	4.62079	36.4867	
58	0.483333	-138.671	28.9844	36.6444	-119.66	34.9494	10.2759	-106.745	42.725	-14.0866	-92.7195	42.7594	-36.3532	-160.729	-2.96997	-29.7624	-162.945	-2.45559	-59.3771	-150.997	2.33133	-89.1307	-139.12	-22.8365	-36.6632	-111.77	-12.4486	-59.0878	-80.7753	2.9174	-43.7172	-122.287	-34.814	-24.65	-92.9423	-24.5204	-37.209	-75.1941	-7.44736	-21.9022	-110.595	-49.1123	-9.62256	-89.7426	-38.5175	-23.3015	-69.8033	-16.441	-13.4258	-148.838	-35.8679	22.7993	-149.205	-33.5153	56.8071	-161.811	-7.24376	33.0756	
59	0.491667	-148.178	21.7316	37.4692	-137.089	33.4306	9.50714	-130.785	44.3898	-16.3602	-120.127	48.1983	-39.206	-156.588	-9.42424	-38.5187	-152.422	-1.83592	-67.3887	-137.424	4.31501	-85.4123	-129.742	-27.6347	-41.4856	-111.189	-12.0934	-61.2956	-81.9659	9.88343	-48.8007	-115.492	-39.0643	-30.3058	-94.1138	-24.1309	-48.2324	-72.982	-0.808074	-37.5579	-100.679	-49.2867	-8.58365	-79.7753	-40.1166	-30.4728	-67.6131	-19.4563	-31.2529	-135.255	-46.3554	26.2872	-138.568	-43.9849	54.0104	-160.484	-16.4069	31.2183	
60	0.5	-158.369	4.9215	37.3539	-157.823	16.9188	9.94324	-160.879	29.1567	-21.3286	-156.107	34.4788	-40.4589	-149.977	-21.686	-36.1099	-144.114	-10.3536	-65.261	-126.769	10.1494	-83.5381	-129.931	-38.0251	-41.817	-115.255	-26.3961	-65.9473	-94.33	8.6762	-73.4241	-109.645	-47.0225	-30.0657	-93.3165	-36.6827	-54.6152	-80.6395	-11.4776	-62.8501	-90.4829	-47.9909	-11.6227	-72.6871	-42.2203	-31.491	-59.8011	-23.3616	-44.6255	-124.688	-52.1406	20.2523	-127.327	-49.5882	54.0033	-149.848	-34.3875	31.3697	
61	0.508333	-165.307	-12.3921	37.0861	-173.679	-2.39696	11.2965	-181.922	5.5804	-15.9393	-183.888	11.7535	-40.5659	-147.163	-35.4761	-36.678	-144.474	-20.1505	-65.7399	-138.036	5.55748	-79.7878	-126.502	-50.3832	-41.8397	-117.077	-40.7816	-70.315	-107.116	-13.5802	-91.1224	-102.145	-49.7997	-28.2978	-94.7175	-40.4345	-56.4094	-82.1811	-16.1042	-72.2409	-80.6076	-44.1086	-13.6385	-70.4459	-31.9226	-34.1293	-65.9979	-11.2377	-46.8515	-114.49	-57.1819	20.2789	-117.812	-54.5374	50.7647	-151.295	-46.7609	33.3026	
62	0.516667	-169.909	-28.3784	41.3143	-182.269	-24.2498	12.0813	-191.04	-19.344	-11.0416	-191.471	-15.1166	-38.8029	-150.25	-50.1019	-36.8117	-151.746	-39.1923	-63.9473	-145.413	-10.5844	-79.8104	-126.585	-60.6657	-36.5395	-123.208	-54.3721	-69.6396	-114.026	-33.2685	-93.9296	-102.302	-50.6944	-29.2241	-98.3277	-39.606	-54.6519	-92.9653	-8.36153	-68.0154	-83.8462	-39.2346	-12.416	-76.9131	-20.6971	-31.5542	-80.9595	6.52242	-39.4858	-114.631	-61.9064	27.1131	-117.199	-58.0774	53.6991	-147.14	-57.116	34.7824	
